<svg width="231" height="154" viewBox="0 0 231 154" fill="none" xmlns="http://www.w3.org/2000/svg">
<path d="M146.643 99.2433C148.367 102.373 152.558 103.6 155.705 101.887L170.518 94.0092L178.697 108.593C180.421 111.722 184.612 112.949 187.758 111.237C190.905 109.525 192.136 105.358 190.413 102.228L182.432 87.7334L197.005 79.8045C200.2 77.8933 201.383 73.9252 199.659 70.7956C197.936 67.6661 193.745 66.4391 190.598 68.1515L175.785 76.0298L167.606 61.446C165.882 58.3164 161.691 57.0895 158.545 58.8019C155.398 60.5143 154.166 64.6812 155.89 67.8108L163.871 82.3055L149.298 90.2344C146.152 91.9468 144.92 96.1137 146.643 99.2433Z" fill="#E31837"/>
<path fill-rule="evenodd" clip-rule="evenodd" d="M150.11 121.273C124.062 118.221 115.985 99.1463 113.562 89.7497C116.308 83.6861 117.842 77.1004 117.842 70.2738C117.842 57.5844 112.875 45.6177 103.829 36.6227C85.7365 18.6326 54.2365 18.6326 36.1442 36.6227C17.4865 55.175 17.4865 85.3726 36.1442 103.925L38.0423 105.812H101.931L103.829 103.925C104.152 103.604 104.394 103.202 104.717 102.881C111.138 116.976 125.515 134.604 157.419 134.604C161.013 134.604 163.921 131.713 163.921 128.139C163.921 124.565 161.013 121.674 157.419 121.674L150.11 121.273ZM65.9481 85.1317C69.5423 85.1317 72.45 82.2404 72.45 78.6665V72.8438C72.45 69.2699 69.5423 66.3786 65.9481 66.3786C62.3538 66.3786 59.4461 69.2699 59.4461 72.8438V78.6665C59.4461 82.2404 62.3538 85.1317 65.9481 85.1317ZM89.1692 85.1317C92.7634 85.1317 95.6711 82.2404 95.6711 78.6665V72.8438C95.6711 69.2699 92.7634 66.3786 89.1692 66.3786C85.575 66.3786 82.6673 69.2699 82.6673 72.8438V78.6665C82.6673 82.2404 85.575 85.1317 89.1692 85.1317Z" fill="#E31837"/>
<path d="M10.1769 91.878L5.29035 94.0464C2.01919 95.4921 0.565347 99.3069 1.97881 102.56C3.06919 104.969 5.4115 106.374 7.91535 106.374C8.80381 106.374 9.69227 106.214 10.5403 105.812L15.4269 103.644C18.698 102.198 20.1519 98.3833 18.7384 95.1306C17.2846 91.878 13.448 90.4323 10.1769 91.8378V91.878Z" fill="#E31837"/>
<path d="M4.15949 52.6049L9.16718 54.4923C9.93449 54.7734 10.7018 54.934 11.4691 54.934C14.0941 54.934 16.5172 53.3679 17.5268 50.7979C18.8191 47.4649 17.1229 43.7304 13.8114 42.4855L8.80372 40.5981C5.49218 39.3131 1.69603 40.9997 0.444105 44.2925C-0.848203 47.6255 0.847951 51.3601 4.15949 52.6049Z" fill="#E31837"/>
<path d="M39.6577 15.3398C40.748 17.7491 43.0903 19.1546 45.5942 19.1546C46.4827 19.1546 47.3711 18.994 48.2192 18.5924C51.4903 17.1468 52.9442 13.3319 51.4903 10.0793L49.3096 5.22034C47.8557 1.96767 44.0192 0.481877 40.748 1.96767C37.4769 3.4133 36.023 7.22816 37.4769 10.4808L39.6577 15.3398Z" fill="#E31837"/>
<path d="M92.8038 17.4279C93.5711 17.709 94.3385 17.8696 95.1058 17.8696C97.7308 17.8696 100.154 16.3035 101.163 13.7335L103.062 8.7541C104.354 5.42111 102.658 1.68656 99.3461 0.441713C96.0346 -0.843293 92.2385 0.843278 90.9865 4.13611L89.0885 9.11551C87.7961 12.4485 89.4923 16.183 92.8038 17.4279Z" fill="#E31837"/>
<path d="M131.088 51.7617C131.977 51.7617 132.865 51.6011 133.713 51.1995L138.6 49.031C141.871 47.5854 143.325 43.7706 141.871 40.5179C140.417 37.2652 136.581 35.8196 133.31 37.2652L128.423 39.4337C125.152 40.8793 123.698 44.6941 125.152 47.9468C126.242 50.3562 128.585 51.7617 131.088 51.7617Z" fill="#E31837"/>
<path d="M98.1346 112.157H41.8788V131.352H98.1346V112.157Z" fill="#E31837"/>
<path d="M70.0269 154C79.5577 154 87.2711 146.33 87.2711 136.853H52.7827C52.7827 146.33 60.4961 154 70.0269 154Z" fill="#E31837"/>
</svg>
