<svg width="120" height="130" viewBox="0 0 120 130" fill="none" xmlns="http://www.w3.org/2000/svg">
    <path
        d="M8.46758 76.9515L4.39777 78.769C1.67334 79.9806 0.462488 83.1781 1.67334 85.9043C2.58148 87.9237 4.53231 89.1017 6.61767 89.1017C7.35763 89.1017 8.0976 88.9671 8.80393 88.6305L12.8737 86.813C15.5982 85.6014 16.809 82.4039 15.5982 79.6777C14.3873 76.9515 11.192 75.7062 8.46758 76.9515Z"
        fill="#E31837" />
    <path
        d="M3.456 44.0686L7.62672 45.6504C8.26578 45.886 8.90485 46.0207 9.54391 46.0207C11.7302 46.0207 13.7483 44.708 14.5891 42.554C15.6655 39.7605 14.2528 36.6304 11.4947 35.587L7.32401 34.0051C4.56595 32.9617 1.43791 34.3417 0.361593 37.1016C-0.714723 39.8614 0.697941 43.0252 3.456 44.0686Z"
        fill="#E31837" />
    <path
        d="M33.021 12.8349C33.9291 14.8543 35.88 16.0323 37.9653 16.0323C38.7053 16.0323 39.4453 15.8977 40.1516 15.5611C42.876 14.3494 44.0869 11.152 42.876 8.4258L41.0597 4.3533C39.8489 1.62708 36.6536 0.41543 33.9291 1.62708C31.2047 2.83873 29.9939 6.03615 31.2047 8.76237L33.021 12.8349Z"
        fill="#E31837" />
    <path
        d="M77.2509 14.585C77.89 14.8206 78.5291 14.9553 79.1681 14.9553C81.3544 14.9553 83.3725 13.6427 84.2133 11.4886L85.7942 7.31513C86.8705 4.5216 85.4578 1.3915 82.6998 0.348129C79.9417 -0.695238 76.78 0.684699 75.7374 3.44457L74.1565 7.61804C73.0802 10.4116 74.4929 13.5417 77.2509 14.585Z"
        fill="#E31837" />
    <path
        d="M109.17 43.3281C109.91 43.3281 110.65 43.1935 111.357 42.8569L115.426 41.0395C118.151 39.8278 119.362 36.6304 118.151 33.9042C116.94 31.178 113.778 29.9326 111.02 31.178L106.95 32.9954C104.226 34.2071 103.015 37.4045 104.226 40.1307C105.101 42.1501 107.085 43.3281 109.17 43.3281Z"
        fill="#E31837" />
    <path
        d="M116.335 75.7735L112.164 74.1916C109.406 73.1146 106.244 74.5282 105.201 77.288C104.125 80.0816 105.538 83.2117 108.296 84.2551L112.467 85.8369C113.106 86.0725 113.745 86.2072 114.384 86.2072C116.57 86.2072 118.588 84.8945 119.429 82.7405C120.505 79.947 119.093 76.8169 116.335 75.7735Z"
        fill="#E31837" />
    <path
        d="M30.1285 30.6731C14.5892 46.2226 14.5892 71.5327 30.1285 87.0822L31.7093 88.6641H84.9197L86.5005 87.0822C94.0347 79.5431 98.1718 69.5469 98.1718 58.8777C98.1718 48.2084 94.0347 38.2122 86.5005 30.6731C71.4321 15.5947 45.1969 15.5947 30.1285 30.6731ZM54.0429 65.3398C54.0429 68.3353 51.6212 70.7586 48.6276 70.7586C45.6341 70.7586 43.2124 68.3353 43.2124 65.3398V50.1605C43.2124 47.165 45.6341 44.7417 48.6276 44.7417C51.6212 44.7417 54.0429 47.165 54.0429 50.1605V65.3398ZM73.3829 65.3398C73.3829 68.3353 70.9612 70.7586 67.9677 70.7586C64.9742 70.7586 62.5525 68.3353 62.5525 65.3398V50.1605C62.5525 47.165 64.9742 44.7417 67.9677 44.7417C70.9612 44.7417 73.3829 47.165 73.3829 50.1605V65.3398Z"
        fill="#E31837" />
    <path d="M81.7243 93.9819H34.871V110.07H81.7243V93.9819Z" fill="#E31837" />
    <path
        d="M58.3145 129.053C66.2523 129.053 72.6766 122.624 72.6766 114.681H43.9524C43.9524 122.624 50.3767 129.053 58.3145 129.053Z"
        fill="#E31837" />
</svg>