<svg width="22" height="22" viewBox="0 0 22 22" fill="none" xmlns="http://www.w3.org/2000/svg">
<rect y="13.7981" width="5.67501" height="8.12306" rx="2" fill="#E31838"/>
<rect x="15.4673" y="16.58" width="5.67501" height="5.34119" rx="2" fill="#E31838"/>
<rect x="7.01025" y="11.0161" width="7.01031" height="10.7936" rx="2" fill="#E31838"/>
<path d="M9.44753 1.33768C9.83999 0.716637 10.7458 0.716637 11.1382 1.33768L11.8666 2.49023C12.0032 2.70636 12.2173 2.86196 12.4651 2.92507L13.7863 3.26162C14.4982 3.44296 14.7781 4.30439 14.3087 4.86956L13.4377 5.91843C13.2743 6.11511 13.1925 6.36688 13.2091 6.62201L13.2973 7.98256C13.3448 8.71568 12.612 9.24807 11.9295 8.97633L10.6628 8.47201C10.4252 8.37744 10.1605 8.37744 9.92298 8.47201L8.65628 8.97633C7.97372 9.24807 7.24095 8.71568 7.28847 7.98256L7.37668 6.62201C7.39321 6.36688 7.31141 6.11511 7.14807 5.91843L6.277 4.86956C5.80763 4.30439 6.08753 3.44296 6.79945 3.26162L8.12067 2.92507C8.36842 2.86196 8.58259 2.70636 8.71917 2.49023L9.44753 1.33768Z" fill="#E31838"/>
</svg>
