<svg width="112" height="84" viewBox="0 0 112 84" fill="none" xmlns="http://www.w3.org/2000/svg">
<path d="M8.14357 71.7898L4.34674 73.4854C1.80507 74.6157 0.675433 77.5987 1.80507 80.142C2.65229 82.026 4.47226 83.125 6.41774 83.125C7.10807 83.125 7.7984 82.9994 8.45735 82.6854L12.2542 80.9898C14.7959 79.8594 15.9255 76.8765 14.7959 74.3331C13.6662 71.7898 10.6852 70.628 8.14357 71.7898Z" fill="#E31837"/>
<path d="M3.46881 41.1126L7.35977 42.5883C7.95597 42.8081 8.55216 42.9337 9.14836 42.9337C11.188 42.9337 13.0707 41.7092 13.8552 39.6996C14.8593 37.0934 13.5414 34.1733 10.9683 33.1999L7.07736 31.7241C4.50431 30.7508 1.58609 32.0381 0.581967 34.6129C-0.422152 37.1876 0.895754 40.1392 3.46881 41.1126Z" fill="#E31837"/>
<path d="M31.0498 11.974C31.897 13.8579 33.717 14.9569 35.6625 14.9569C36.3528 14.9569 37.0431 14.8313 37.7021 14.5173C40.2438 13.3869 41.3734 10.404 40.2438 7.86063L38.5493 4.06131C37.4197 1.51796 34.4387 0.387578 31.897 1.51796C29.3554 2.64833 28.2257 5.63128 29.3554 8.17463L31.0498 11.974Z" fill="#E31837"/>
<path d="M72.314 13.6067C72.9102 13.8265 73.5064 13.9521 74.1026 13.9521C76.1422 13.9521 78.025 12.7275 78.8094 10.718L80.2842 6.82445C81.2883 4.2183 79.9704 1.29816 77.3974 0.324778C74.8243 -0.648603 71.8747 0.638772 70.902 3.21352L69.4272 7.10705C68.4231 9.71319 69.741 12.6333 72.314 13.6067Z" fill="#E31837"/>
<path d="M102.092 40.4218C102.782 40.4218 103.473 40.2962 104.132 39.9822L107.928 38.2866C110.47 37.1563 111.6 34.1733 110.47 31.63C109.341 29.0866 106.391 27.9248 103.818 29.0866L100.021 30.7822C97.4794 31.9126 96.3497 34.8955 97.4794 37.4388C98.2952 39.3228 100.147 40.4218 102.092 40.4218Z" fill="#E31837"/>
<path d="M108.776 70.6908L104.885 69.215C102.312 68.2103 99.3623 69.529 98.3896 72.1038C97.3855 74.7099 98.7034 77.6301 101.276 78.6035L105.167 80.0792C105.764 80.299 106.36 80.4246 106.956 80.4246C108.996 80.4246 110.878 79.2 111.663 77.1905C112.667 74.5843 111.349 71.6642 108.776 70.6908Z" fill="#E31837"/>
<path d="M27.9098 28.2757C13.4129 42.7822 13.4129 66.3946 27.9098 80.9011L29.3846 82.3769H79.0258L80.5006 80.9011C87.5294 73.8676 91.389 64.542 91.389 54.5884C91.389 44.6348 87.5294 35.3092 80.5006 28.2757C66.4429 14.2088 41.9675 14.2088 27.9098 28.2757ZM50.2201 60.6171C50.2201 63.4116 47.9608 65.6724 45.1681 65.6724C42.3754 65.6724 40.1162 63.4116 40.1162 60.6171V46.456C40.1162 43.6614 42.3754 41.4007 45.1681 41.4007C47.9608 41.4007 50.2201 43.6614 50.2201 46.456V60.6171ZM68.2629 60.6171C68.2629 63.4116 66.0036 65.6724 63.2109 65.6724C60.4182 65.6724 58.1589 63.4116 58.1589 60.6171V46.456C58.1589 43.6614 60.4182 41.4007 63.2109 41.4007C66.0036 41.4007 68.2629 43.6614 68.2629 46.456V60.6171Z" fill="#E31837"/>
<path d="M42.5438 60.6131C36.0546 64.1811 33.6924 72.324 37.2627 78.8174L60.7446 65.9061C57.1743 59.4127 49.0329 57.0451 42.5438 60.6131Z" fill="#E31837"/>
<path d="M59.7415 60.4556C53.2524 64.0236 50.8901 72.1666 54.4605 78.66L77.9424 65.7487C74.372 59.2553 66.2307 56.8877 59.7415 60.4556Z" fill="#E31837"/>
</svg>
