<svg width="31" height="35" viewBox="0 0 31 35" fill="none" xmlns="http://www.w3.org/2000/svg">
<path d="M2.19118 20.7154L1.138 21.1857C0.432984 21.4992 0.119642 22.3267 0.432984 23.0321C0.66799 23.5547 1.17282 23.8596 1.71246 23.8596C1.90395 23.8596 2.09543 23.8247 2.27822 23.7376L3.33139 23.2673C4.03641 22.9537 4.34975 22.1263 4.03641 21.4208C3.72307 20.7154 2.8962 20.3931 2.19118 20.7154Z" fill="white"/>
<path d="M0.894334 12.206L1.97362 12.6154C2.139 12.6763 2.30437 12.7112 2.46975 12.7112C3.0355 12.7112 3.55774 12.3715 3.77534 11.8141C4.05386 11.0912 3.6883 10.2812 2.97457 10.0112L1.89529 9.60181C1.18156 9.33181 0.372098 9.6889 0.093572 10.4031C-0.184954 11.1173 0.180611 11.936 0.894334 12.206Z" fill="white"/>
<path d="M8.5446 4.12342C8.7796 4.646 9.28443 4.95084 9.82408 4.95084C10.0156 4.95084 10.207 4.916 10.3898 4.8289C11.0949 4.51536 11.4082 3.68794 11.0949 2.98246L10.6248 1.92859C10.3115 1.2231 9.48462 0.909555 8.7796 1.2231C8.07459 1.53665 7.76124 2.36407 8.07459 3.06955L8.5446 4.12342Z" fill="white"/>
<path d="M19.991 4.57634C20.1564 4.63731 20.3218 4.67215 20.4871 4.67215C21.0529 4.67215 21.5751 4.33247 21.7927 3.77505L22.2018 2.69505C22.4803 1.97215 22.1148 1.16215 21.4011 0.892151C20.6873 0.622151 19.8692 0.979248 19.5993 1.69344L19.1903 2.77344C18.9117 3.49634 19.2773 4.30634 19.991 4.57634Z" fill="white"/>
<path d="M28.2505 12.0144C28.442 12.0144 28.6335 11.9796 28.8163 11.8925L29.8695 11.4221C30.5745 11.1086 30.8878 10.2812 30.5745 9.57569C30.2612 8.87021 29.443 8.54795 28.7293 8.87021L27.6761 9.34053C26.9711 9.65408 26.6577 10.4815 26.9711 11.187C27.1974 11.7096 27.7109 12.0144 28.2505 12.0144Z" fill="white"/>
<path d="M30.1045 20.4105L29.0252 20.0012C28.3114 19.7225 27.4933 20.0883 27.2235 20.8025C26.9449 21.5254 27.3105 22.3354 28.0242 22.6054L29.1035 23.0147C29.2689 23.0757 29.4343 23.1105 29.5996 23.1105C30.1654 23.1105 30.6876 22.7708 30.9052 22.2134C31.1837 21.4905 30.8182 20.6805 30.1045 20.4105Z" fill="white"/>
<path d="M7.67412 8.64526C3.6529 12.6691 3.6529 19.2188 7.67412 23.2427L8.0832 23.652H21.8528L22.2619 23.2427C24.2116 21.2917 25.2822 18.7049 25.2822 15.944C25.2822 13.183 24.2116 10.5962 22.2619 8.64526C18.3625 4.74333 11.5735 4.74333 7.67412 8.64526ZM13.8626 17.6162C13.8626 18.3914 13.2359 19.0185 12.4613 19.0185C11.6866 19.0185 11.0599 18.3914 11.0599 17.6162V13.6882C11.0599 12.913 11.6866 12.2859 12.4613 12.2859C13.2359 12.2859 13.8626 12.913 13.8626 13.6882V17.6162ZM18.8674 17.6162C18.8674 18.3914 18.2407 19.0185 17.466 19.0185C16.6914 19.0185 16.0647 18.3914 16.0647 17.6162V13.6882C16.0647 12.913 16.6914 12.2859 17.466 12.2859C18.2407 12.2859 18.8674 12.913 18.8674 13.6882V17.6162Z" fill="white"/>
<path d="M21.149 25.1224H9.02441V29.2857H21.149V25.1224Z" fill="white"/>
<path d="M15.0906 34.1979C17.1447 34.1979 18.8072 32.5344 18.8072 30.4789H11.374C11.374 32.5344 13.0365 34.1979 15.0906 34.1979Z" fill="white"/>
</svg>
