<svg width="19" height="21" viewBox="0 0 19 21" fill="none" xmlns="http://www.w3.org/2000/svg">
<path d="M1.34254 12.471L0.697008 12.7592C0.264877 12.9514 0.0728191 13.4586 0.264877 13.891C0.408921 14.2113 0.718347 14.3982 1.04911 14.3982C1.16648 14.3982 1.28385 14.3768 1.39589 14.3234L2.04141 14.0351C2.47354 13.843 2.6656 13.3358 2.47354 12.9034C2.28149 12.471 1.77467 12.2734 1.34254 12.471Z" fill="#E31837"/>
<path d="M0.548168 7.2552L1.2097 7.50611C1.31107 7.54348 1.41243 7.56484 1.51379 7.56484C1.86056 7.56484 2.18066 7.35663 2.31404 7.01497C2.48475 6.57187 2.26069 6.07538 1.82322 5.90989L1.16169 5.65898C0.724222 5.49348 0.228072 5.71236 0.0573535 6.15012C-0.113365 6.58788 0.110703 7.08971 0.548168 7.2552Z" fill="#E31837"/>
<path d="M5.23802 2.30096C5.38207 2.62127 5.69149 2.80812 6.02226 2.80812C6.13963 2.80812 6.257 2.78677 6.36903 2.73338C6.80116 2.54119 6.99322 2.03403 6.80116 1.60161L6.51307 0.955649C6.32102 0.523228 5.8142 0.331041 5.38207 0.523228C4.94994 0.715415 4.75788 1.22258 4.94994 1.655L5.23802 2.30096Z" fill="#E31837"/>
<path d="M12.2528 2.57856C12.3541 2.61593 12.4555 2.63728 12.5569 2.63728C12.9036 2.63728 13.2237 2.42908 13.3571 2.08741L13.6078 1.42543C13.7786 0.982334 13.5545 0.48585 13.117 0.320356C12.6796 0.154861 12.1781 0.373741 12.0127 0.811501L11.7619 1.47348C11.5912 1.91658 11.8153 2.41306 12.2528 2.57856Z" fill="#E31837"/>
<path d="M17.3157 7.13767C17.4331 7.13767 17.5505 7.11631 17.6625 7.06293L18.308 6.77464C18.7401 6.58246 18.9322 6.0753 18.7401 5.64288C18.5481 5.21045 18.0466 5.01293 17.6091 5.21045L16.9636 5.49873C16.5315 5.69092 16.3394 6.19808 16.5315 6.6305C16.6702 6.95082 16.9849 7.13767 17.3157 7.13767Z" fill="#E31837"/>
<path d="M18.4521 12.2839L17.7906 12.033C17.3531 11.8621 16.8516 12.0864 16.6863 12.5241C16.5155 12.9672 16.7396 13.4637 17.1771 13.6292L17.8386 13.8801C17.94 13.9175 18.0413 13.9388 18.1427 13.9388C18.4895 13.9388 18.8096 13.7306 18.9429 13.389C19.1137 12.9459 18.8896 12.4494 18.4521 12.2839Z" fill="#E31837"/>
<path d="M4.70354 5.07256C2.23879 7.53896 2.23879 11.5535 4.70354 14.0199L4.95428 14.2709H13.3942L13.6449 14.0199C14.8399 12.8241 15.4961 11.2386 15.4961 9.54625C15.4961 7.85394 14.8399 6.26839 13.6449 5.07256C11.2548 2.68089 7.09359 2.68089 4.70354 5.07256ZM8.49668 10.5713C8.49668 11.0464 8.11257 11.4308 7.63776 11.4308C7.16295 11.4308 6.77883 11.0464 6.77883 10.5713V8.16357C6.77883 7.68844 7.16295 7.30407 7.63776 7.30407C8.11257 7.30407 8.49668 7.68844 8.49668 8.16357V10.5713ZM11.5643 10.5713C11.5643 11.0464 11.1802 11.4308 10.7054 11.4308C10.2305 11.4308 9.84643 11.0464 9.84643 10.5713V8.16357C9.84643 7.68844 10.2305 7.30407 10.7054 7.30407C11.1802 7.30407 11.5643 7.68844 11.5643 8.16357V10.5713Z" fill="#E31837"/>
<path d="M12.9623 15.1724H5.53076V17.7242H12.9623V15.1724Z" fill="#E31837"/>
<path d="M9.24921 20.7349C10.5083 20.7349 11.5272 19.7152 11.5272 18.4553H6.97119C6.97119 19.7152 7.99017 20.7349 9.24921 20.7349Z" fill="#E31837"/>
</svg>
