<svg width="45" height="47" viewBox="0 0 45 47" fill="none" xmlns="http://www.w3.org/2000/svg">
<path d="M3.76907 28.0255L2.28677 28.6874C1.29449 29.1287 0.85347 30.2933 1.29449 31.2862C1.62525 32.0218 2.33577 32.4508 3.0953 32.4508C3.36481 32.4508 3.63432 32.4018 3.89158 32.2792L5.37388 31.6172C6.36616 31.1759 6.80718 30.0114 6.36616 29.0184C5.92515 28.0255 4.76136 27.5719 3.76907 28.0255Z" fill="#0070BB"/>
<path d="M1.9438 16.0489L3.46285 16.6251C3.69561 16.7109 3.92836 16.7599 4.16112 16.7599C4.9574 16.7599 5.69243 16.2818 5.99869 15.4973C6.3907 14.4798 5.87618 13.3398 4.87165 12.9598L3.3526 12.3836C2.34806 12.0036 1.20877 12.5062 0.816757 13.5114C0.424744 14.5166 0.939261 15.6689 1.9438 16.0489Z" fill="#0070BB"/>
<path d="M12.7119 4.67308C13.0426 5.40859 13.7532 5.83763 14.5127 5.83763C14.7822 5.83763 15.0517 5.7886 15.309 5.66602C16.3012 5.22471 16.7423 4.06015 16.3012 3.06722L15.6397 1.58394C15.1987 0.591 14.0349 0.149695 13.0426 0.591C12.0503 1.03231 11.6093 2.19686 12.0503 3.1898L12.7119 4.67308Z" fill="#0070BB"/>
<path d="M28.8212 5.3105C29.054 5.39631 29.2868 5.44535 29.5195 5.44535C30.3158 5.44535 31.0508 4.96727 31.3571 4.18272L31.9328 2.66267C32.3249 1.64522 31.8103 0.505176 30.8058 0.125162C29.8013 -0.254851 28.6497 0.247747 28.27 1.25294L27.6942 2.773C27.3022 3.79045 27.8167 4.93049 28.8212 5.3105Z" fill="#0070BB"/>
<path d="M40.4469 15.7793C40.7164 15.7793 40.9859 15.7302 41.2431 15.6076L42.7254 14.9457C43.7177 14.5044 44.1587 13.3398 43.7177 12.3469C43.2767 11.3539 42.1252 10.9004 41.1206 11.3539L39.6383 12.0159C38.646 12.4572 38.205 13.6218 38.646 14.6147C38.9646 15.3502 39.6873 15.7793 40.4469 15.7793Z" fill="#0070BB"/>
<path d="M43.0562 27.5964L41.5372 27.0203C40.5326 26.628 39.3811 27.1429 39.0013 28.1481C38.6093 29.1655 39.1238 30.3056 40.1284 30.6856L41.6474 31.2617C41.8802 31.3475 42.1129 31.3966 42.3457 31.3966C43.142 31.3966 43.877 30.9185 44.1833 30.1339C44.5753 29.1165 44.0608 27.9765 43.0562 27.5964Z" fill="#0070BB"/>
<path d="M11.486 11.0374C5.82629 16.7008 5.82629 25.9192 11.486 31.5826L12.0618 32.1588H31.4419L32.0177 31.5826C34.7618 28.8367 36.2686 25.1959 36.2686 21.31C36.2686 17.424 34.7618 13.7833 32.0177 11.0374C26.5295 5.54557 16.9742 5.54557 11.486 11.0374ZM20.196 23.6636C20.196 24.7546 19.314 25.6372 18.2237 25.6372C17.1334 25.6372 16.2514 24.7546 16.2514 23.6636V18.135C16.2514 17.044 17.1334 16.1614 18.2237 16.1614C19.314 16.1614 20.196 17.044 20.196 18.135V23.6636ZM27.24 23.6636C27.24 24.7546 26.358 25.6372 25.2677 25.6372C24.1774 25.6372 23.2954 24.7546 23.2954 23.6636V18.135C23.2954 17.044 24.1774 16.1614 25.2677 16.1614C26.358 16.1614 27.24 17.044 27.24 18.135V23.6636Z" fill="#0070BB"/>
<path d="M30.4506 34.2283H13.3857V40.0879H30.4506V34.2283Z" fill="#0070BB"/>
<path d="M21.9238 47.0016C24.8149 47.0016 27.1547 44.6603 27.1547 41.7673H16.6929C16.6929 44.6603 19.0327 47.0016 21.9238 47.0016Z" fill="#0070BB"/>
</svg>
