<svg width="378" height="361" viewBox="0 0 378 361" fill="none" xmlns="http://www.w3.org/2000/svg">
<path d="M148.497 262.867H279.723V307.865H148.497V262.867Z" fill="#E31838"/>
<path d="M214.062 360.959C191.83 360.959 173.837 342.978 173.837 320.762H254.287C254.287 342.978 236.294 360.959 214.062 360.959Z" fill="#E31838"/>
<path d="M353.672 215.327L365.071 220.41C372.701 223.799 376.092 232.742 372.701 240.368C370.158 246.016 364.694 249.311 358.853 249.311C356.781 249.311 354.708 248.934 352.73 247.993L341.331 242.909C333.701 239.52 330.309 230.577 333.701 222.952C337.092 215.327 346.041 211.844 353.672 215.327Z" fill="#E31838"/>
<path d="M367.708 123.259L356.027 127.684C354.237 128.343 352.447 128.719 350.657 128.719C344.534 128.719 338.882 125.048 336.527 119.023C333.512 111.21 337.469 102.455 345.194 99.5366L356.875 95.1121C364.6 92.1938 373.455 96.0535 376.375 103.773C379.389 111.586 375.433 120.341 367.708 123.259Z" fill="#E31838"/>
<path d="M284.903 35.8991C282.36 41.5474 276.896 44.8422 271.055 44.8422C268.983 44.8422 266.91 44.4657 264.932 43.5243C257.301 40.1353 253.91 31.1922 257.301 23.5669L262.388 12.1762C265.78 4.551 274.729 1.06788 282.36 4.551C289.99 7.93998 293.381 16.8831 289.99 24.5083L284.903 35.8991Z" fill="#E31838"/>
<path d="M160.931 40.7942C159.141 41.4532 157.351 41.8298 155.561 41.8298C149.438 41.8298 143.786 38.1584 141.431 32.1335L137.003 20.4604C133.989 12.6469 137.945 3.892 145.67 0.973714C153.395 -1.94457 162.156 1.9151 165.17 9.63444L169.598 21.3076C172.612 29.1211 168.656 37.8759 160.931 40.7942Z" fill="#E31838"/>
<path d="M71.6261 121.188C69.5536 121.188 67.4811 120.812 65.5028 119.87L54.1042 114.787C46.4737 111.398 43.0824 102.455 46.3795 94.8297C49.7708 87.2045 58.7202 83.8155 66.3507 87.1103L77.7493 92.1938C85.3798 95.5828 88.7711 104.526 85.474 112.151C82.9305 117.799 77.4667 121.094 71.6261 121.094V121.188Z" fill="#E31838"/>
<path d="M21.9812 184.355C27.445 177.201 37.9958 176.636 44.2132 183.037C45.1553 183.979 46.2857 185.014 47.2278 185.956L49.677 165.716C50.7133 157.432 58.0612 151.501 66.5395 152.536C74.8294 153.572 80.7642 161.103 79.728 169.387L75.0178 208.266C75.0178 209.019 74.5468 209.678 74.3584 210.432C81.9889 215.421 90.373 218.998 97.5325 217.021C103.185 215.515 107.518 210.714 110.533 206.195C105.257 193.11 102.431 179.083 102.431 164.68C102.431 134.933 114.018 106.879 135.12 85.7924C177.323 43.6184 250.802 43.6184 293.005 85.7924C336.527 129.284 336.527 200.076 293.005 243.568L288.577 247.993H139.547L135.12 243.568C132.011 240.462 129.562 236.979 126.924 233.59C121.366 238.955 114.583 243.756 105.728 246.204C101.677 247.334 97.4383 247.899 93.1991 247.899C83.0251 247.899 72.3801 244.321 61.4525 237.92C57.9669 240.838 53.1626 242.156 48.3582 241.121L11.3362 232.366C0.973755 229.918 -3.45383 217.586 3.0462 209.114L21.9812 184.449V184.355ZM208.41 184.355C208.41 192.734 215.193 199.511 223.577 199.511C231.961 199.511 238.744 192.734 238.744 184.355V141.899C238.744 133.52 231.961 126.743 223.577 126.743C215.193 126.743 208.41 133.52 208.41 141.899V184.355ZM154.243 184.355C154.243 192.734 161.026 199.511 169.41 199.511C177.794 199.511 184.577 192.734 184.577 184.355V141.899C184.577 133.52 177.794 126.743 169.41 126.743C161.026 126.743 154.243 133.52 154.243 141.899V184.355Z" fill="#E31838"/>
</svg>
