<svg width="360" height="378" viewBox="0 0 360 378" fill="none" xmlns="http://www.w3.org/2000/svg">
<g clip-path="url(#clip0_826_11124)">
<path d="M341.129 258.406C347.098 258.406 352.683 254.992 355.282 249.139C358.748 241.237 355.282 231.97 347.387 228.458L335.737 223.191C327.938 219.777 318.791 223.191 315.325 231.19C311.859 239.091 315.325 248.358 323.22 251.87L334.87 257.138C336.892 258.016 339.01 258.503 341.129 258.503V258.406Z" fill="#0070BB"/>
<path d="M332.656 133.446C334.485 133.446 336.315 133.154 338.144 132.373L350.083 127.788C358.075 124.667 362.022 115.692 359.037 107.596C355.956 99.4994 347.002 95.4999 339.107 98.5239L327.168 103.109C319.177 106.23 315.229 115.205 318.214 123.301C320.524 129.544 326.398 133.349 332.656 133.349V133.446Z" fill="#0070BB"/>
<path d="M251.393 46.6281C257.363 46.6281 262.947 43.2139 265.547 37.361L270.746 25.5577C274.212 17.6563 270.746 8.38917 262.851 4.87743C255.052 1.36569 245.905 4.87743 242.439 12.8764L237.24 24.6798C233.774 32.5812 237.24 41.8483 245.135 45.36C247.157 46.2379 249.275 46.7257 251.393 46.7257V46.6281Z" fill="#0070BB"/>
<path d="M133.255 43.409C135.085 43.409 136.914 43.1164 138.743 42.336C146.735 39.2145 150.682 30.24 147.698 22.1435L143.172 10.0475C140.091 1.95097 131.137 -2.14606 123.242 0.97549C115.25 4.09704 111.303 13.0715 114.288 21.168L118.813 33.264C121.124 39.5071 126.997 43.3115 133.255 43.3115V43.409Z" fill="#0070BB"/>
<path d="M47.4677 125.74C53.341 125.74 59.0216 122.326 61.6213 116.473C65.0874 108.571 61.6213 99.3043 53.8224 95.7925L42.1722 90.5249C34.3733 86.9156 25.2265 90.5249 21.7603 98.4263C18.2941 106.328 21.7603 115.595 29.5592 119.107L41.2094 124.374C43.2313 125.35 45.3495 125.74 47.4677 125.74Z" fill="#0070BB"/>
<path d="M121.508 276.452H255.63V323.08H121.508V276.452Z" fill="#0070BB"/>
<path d="M188.521 378C165.799 378 147.409 359.368 147.409 336.347H229.634C229.634 359.368 211.244 378 188.521 378Z" fill="#0070BB"/>
<path d="M0.577515 241.237C5.19907 218.508 45.2526 199.974 75.6778 189.049C75.1001 184.269 74.4262 179.489 74.4262 174.612C74.4262 143.786 86.2689 114.717 107.836 92.8661C150.874 49.1644 226.071 49.1644 269.206 92.8661C313.688 137.933 313.688 211.29 269.206 256.357L264.68 260.942H114.576C118.235 258.406 122.664 255.674 128.248 252.65C165.028 232.75 162.717 245.724 176.293 239.579C186.788 234.897 192.661 227.58 186.403 214.119H186.306C186.788 215.777 187.173 217.435 187.077 219.191C186.595 227.873 179.374 234.506 170.901 234.019C151.356 232.653 123.819 244.846 99.5559 255.284C76.1592 265.332 53.6292 275.086 34.9504 275.086C25.4184 275.086 16.8492 272.55 9.72433 266.21C2.11804 259.479 -1.15555 250.407 0.673828 241.237H0.577515ZM200.749 175.002C200.749 183.684 207.681 190.707 216.25 190.707C224.819 190.707 231.752 183.684 231.752 175.002V149.054C231.752 140.372 224.819 133.349 216.25 133.349C207.681 133.349 200.749 140.372 200.749 149.054V175.002ZM169.938 124.764L146.253 119.302C137.973 117.351 129.596 122.618 127.767 131.105C125.937 139.592 131.04 147.981 139.417 149.834L145.483 151.2V175.002C145.483 183.684 152.415 190.707 160.984 190.707C169.553 190.707 176.486 183.684 176.486 175.002V151.98C178.989 149.834 180.915 147.005 181.685 143.494C183.61 135.007 178.411 126.618 170.035 124.764H169.938ZM87.328 226.507C86.1726 224.264 85.1135 221.825 84.0544 219.484C62.8723 227.483 43.3269 237.043 34.7578 243.969C44.9637 243.286 71.2488 233.433 87.328 226.507Z" fill="#0070BB"/>
</g>
<defs>
<clipPath id="clip0_826_11124">
<rect width="360" height="378" fill="white" transform="matrix(-1 0 0 1 360 0)"/>
</clipPath>
</defs>
</svg>
