<svg width="175" height="163" viewBox="0 0 175 163" fill="none" xmlns="http://www.w3.org/2000/svg">
<g clip-path="url(#clip0_102_3595)">
<path d="M157.77 111.429C160.373 111.429 162.809 109.957 163.943 107.433C165.454 104.026 163.943 100.029 160.499 98.5151L155.419 96.2436C152.017 94.7714 148.028 96.2437 146.517 99.6929C145.005 103.1 146.517 107.096 149.96 108.611L155.041 110.882C155.922 111.261 156.846 111.471 157.77 111.471V111.429Z" fill="#0070BB"/>
<path d="M154.075 57.5442C154.873 57.5442 155.67 57.418 156.468 57.0815L161.675 55.1045C165.16 53.7584 166.882 49.8885 165.58 46.3971C164.236 42.9058 160.331 41.1811 156.888 42.4851L151.681 44.4622C148.196 45.8082 146.475 49.6782 147.776 53.1695C148.784 55.8617 151.346 57.5022 154.075 57.5022V57.5442Z" fill="#0070BB"/>
<path d="M118.635 20.1068C121.239 20.1068 123.674 18.6346 124.808 16.1107L127.075 11.0209C128.587 7.61365 127.075 3.61752 123.632 2.1032C120.231 0.588879 116.242 2.1032 114.73 5.55249L112.463 10.6423C110.951 14.0495 112.463 18.0457 115.906 19.56C116.788 19.9386 117.712 20.1489 118.635 20.1489V20.1068Z" fill="#0070BB"/>
<path d="M67.1139 18.7187C67.9117 18.7187 68.7095 18.5925 69.5073 18.256C72.9925 16.9099 74.714 13.04 73.4124 9.54865L71.4388 4.33265C70.0952 0.841296 66.1901 -0.925414 62.7469 0.420651C59.2618 1.76672 57.5402 5.63665 58.8419 9.12801L60.8154 14.344C61.8232 17.0361 64.3845 18.6766 67.1139 18.6766V18.7187Z" fill="#0070BB"/>
<path d="M29.701 54.2212C32.2624 54.2212 34.7398 52.7489 35.8735 50.225C37.3852 46.8178 35.8735 42.8217 32.4723 41.3074L27.3916 39.0359C23.9904 37.4795 20.0014 39.0359 18.4897 42.4431C16.9781 45.8503 18.4897 49.8465 21.8909 51.3608L26.9717 53.6323C27.8535 54.0529 28.7772 54.2212 29.701 54.2212Z" fill="#0070BB"/>
<path d="M61.9911 119.211H120.483V139.318H61.9911V119.211Z" fill="#0070BB"/>
<path d="M91.2161 163C81.3065 163 73.2864 154.966 73.2864 145.038H109.146C109.146 154.966 101.126 163 91.2161 163Z" fill="#0070BB"/>
<path d="M9.25188 104.026C11.2674 94.2245 28.7352 86.2323 42.004 81.521C41.752 79.4599 41.4581 77.3987 41.4581 75.2955C41.4581 62.0031 46.6228 49.4679 56.0286 40.0454C74.798 21.2005 107.592 21.2005 126.404 40.0454C145.803 59.4792 145.803 91.1117 126.404 110.546L124.43 112.523H58.9678C60.5635 111.429 62.495 110.251 64.9304 108.947C80.9705 100.366 79.9628 105.961 85.8833 103.31C90.4602 101.291 93.0216 98.1365 90.2923 92.3316H90.2503C90.4602 93.0467 90.6282 93.7618 90.5862 94.519C90.3762 98.2627 87.227 101.123 83.5319 100.913C75.008 100.324 62.9989 105.582 52.4174 110.083C42.2139 114.415 32.3883 118.622 24.2423 118.622C20.0853 118.622 16.3482 117.528 13.2409 114.794C9.92371 111.892 8.49606 107.98 9.29387 104.026H9.25188ZM96.5487 75.4637C96.5487 79.2075 99.572 82.2361 103.309 82.2361C107.046 82.2361 110.069 79.2075 110.069 75.4637V64.2746C110.069 60.5308 107.046 57.5022 103.309 57.5022C99.572 57.5022 96.5487 60.5308 96.5487 64.2746V75.4637ZM83.112 53.8005L72.7825 51.4449C69.1714 50.6036 65.5183 52.8751 64.7205 56.5347C63.9226 60.1943 66.1481 63.8119 69.8012 64.6111L72.4466 65.2V75.4637C72.4466 79.2075 75.4699 82.2361 79.2069 82.2361C82.944 82.2361 85.9673 79.2075 85.9673 75.4637V65.5365C87.0591 64.6111 87.8988 63.3912 88.2348 61.8769C89.0746 58.2173 86.8071 54.5997 83.154 53.8005H83.112ZM47.0847 97.6738C46.5808 96.7063 46.119 95.6547 45.6571 94.6452C36.4193 98.0945 27.8954 102.217 24.1583 105.203C28.6092 104.909 40.0724 100.66 47.0847 97.6738Z" fill="#0070BB"/>
</g>
<defs>
<clipPath id="clip0_102_3595">
<rect width="157" height="163" fill="white" transform="matrix(-1 0 0 1 166 0)"/>
</clipPath>
</defs>
</svg>
