<svg width="120" height="130" viewBox="0 0 120 130" fill="none" xmlns="http://www.w3.org/2000/svg">
<path d="M8.46758 77.7565L4.39777 79.574C1.67334 80.7856 0.462488 83.9831 1.67334 86.7093C2.58148 88.7287 4.53231 89.9067 6.61767 89.9067C7.35763 89.9067 8.0976 89.7721 8.80393 89.4355L12.8737 87.618C15.5982 86.4064 16.809 83.2089 15.5982 80.4827C14.3873 77.7565 11.192 76.5112 8.46758 77.7565Z" fill="#1680C7"/>
<path d="M3.456 44.8736L7.62672 46.4554C8.26578 46.691 8.90485 46.8257 9.54391 46.8257C11.7302 46.8257 13.7483 45.513 14.5891 43.359C15.6655 40.5655 14.2528 37.4354 11.4947 36.392L7.32401 34.8101C4.56595 33.7667 1.43791 35.1467 0.361593 37.9065C-0.714723 40.6664 0.697941 43.8302 3.456 44.8736Z" fill="#1680C7"/>
<path d="M33.021 13.6399C33.9291 15.6593 35.88 16.8373 37.9653 16.8373C38.7053 16.8373 39.4453 16.7026 40.1516 16.3661C42.876 15.1544 44.0869 11.957 42.876 9.23079L41.0597 5.15829C39.8489 2.43207 36.6536 1.22042 33.9291 2.43207C31.2047 3.64373 29.9939 6.84114 31.2047 9.56736L33.021 13.6399Z" fill="#1680C7"/>
<path d="M77.2509 15.39C77.89 15.6256 78.5291 15.7603 79.1681 15.7603C81.3544 15.7603 83.3725 14.4476 84.2133 12.2936L85.7942 8.12012C86.8705 5.32659 85.4578 2.19649 82.6998 1.15312C79.9417 0.109755 76.78 1.48969 75.7374 4.24957L74.1565 8.42304C73.0802 11.2166 74.4929 14.3467 77.2509 15.39Z" fill="#1680C7"/>
<path d="M109.17 44.1331C109.91 44.1331 110.65 43.9985 111.357 43.6619L115.426 41.8444C118.151 40.6328 119.362 37.4354 118.151 34.7092C116.94 31.9829 113.778 30.7376 111.02 31.9829L106.95 33.8004C104.226 35.0121 103.015 38.2095 104.226 40.9357C105.101 42.9551 107.085 44.1331 109.17 44.1331Z" fill="#1680C7"/>
<path d="M116.335 76.5785L112.164 74.9966C109.406 73.9196 106.244 75.3332 105.201 78.093C104.125 80.8866 105.538 84.0167 108.296 85.06L112.467 86.6419C113.106 86.8775 113.745 87.0122 114.384 87.0122C116.57 87.0122 118.588 85.6995 119.429 83.5455C120.505 80.7519 119.093 77.6218 116.335 76.5785Z" fill="#1680C7"/>
<path d="M30.1285 31.4781C14.5892 47.0276 14.5892 72.3377 30.1285 87.8872L31.7093 89.4691H84.9197L86.5005 87.8872C94.0347 80.348 98.1718 70.3519 98.1718 59.6826C98.1718 49.0134 94.0347 39.0172 86.5005 31.4781C71.4321 16.3997 45.1969 16.3997 30.1285 31.4781ZM54.0429 66.1448C54.0429 69.1403 51.6212 71.5636 48.6276 71.5636C45.6341 71.5636 43.2124 69.1403 43.2124 66.1448V50.9655C43.2124 47.97 45.6341 45.5467 48.6276 45.5467C51.6212 45.5467 54.0429 47.97 54.0429 50.9655V66.1448ZM73.3829 66.1448C73.3829 69.1403 70.9612 71.5636 67.9677 71.5636C64.9742 71.5636 62.5525 69.1403 62.5525 66.1448V50.9655C62.5525 47.97 64.9742 45.5467 67.9677 45.5467C70.9612 45.5467 73.3829 47.97 73.3829 50.9655V66.1448Z" fill="#1680C7"/>
<path d="M81.7243 94.7869H34.871V110.875H81.7243V94.7869Z" fill="#1680C7"/>
<path d="M58.3145 129.858C66.2523 129.858 72.6766 123.429 72.6766 115.486H43.9524C43.9524 123.429 50.3767 129.858 58.3145 129.858Z" fill="#1680C7"/>
</svg>
