<svg width="195" height="179" viewBox="0 0 195 179" fill="none" xmlns="http://www.w3.org/2000/svg">
<g clip-path="url(#clip0_102_3515)">
<path d="M169.56 120.531C172.23 120.531 174.727 119.004 175.89 116.387C177.44 112.855 175.89 108.711 172.359 107.141L167.149 104.786C163.661 103.26 159.57 104.786 158.02 108.363C156.47 111.895 158.02 116.038 161.551 117.609L166.761 119.964C167.666 120.356 168.613 120.574 169.56 120.574V120.531Z" fill="#0070BB"/>
<path d="M165.771 64.6625C166.589 64.6625 167.407 64.5316 168.225 64.1827L173.565 62.1329C177.139 60.7373 178.904 56.7249 177.569 53.105C176.191 49.4852 172.187 47.697 168.656 49.049L163.317 51.0988C159.743 52.4945 157.977 56.5068 159.312 60.1267C160.346 62.9179 162.972 64.6188 165.771 64.6188V64.6625Z" fill="#0070BB"/>
<path d="M129.429 25.847C132.098 25.847 134.596 24.3205 135.759 21.7037L138.084 16.4266C139.634 12.8939 138.084 8.75071 134.553 7.18065C131.065 5.61058 126.974 7.18065 125.424 10.7569L123.099 16.0341C121.549 19.5667 123.099 23.7099 126.63 25.28C127.534 25.6725 128.481 25.8906 129.429 25.8906V25.847Z" fill="#0070BB"/>
<path d="M76.5946 24.4077C77.4127 24.4077 78.2308 24.2769 79.049 23.928C82.6229 22.5324 84.3884 18.52 83.0535 14.9001L81.0297 9.49213C79.6518 5.87226 75.6473 4.04052 72.1164 5.43613C68.5424 6.83174 66.777 10.8441 68.1118 14.464L70.1356 19.872C71.1691 22.6632 73.7957 24.3641 76.5946 24.3641V24.4077Z" fill="#0070BB"/>
<path d="M38.2284 61.217C40.855 61.217 43.3956 59.6906 44.5582 57.0738C46.1083 53.5412 44.5582 49.3979 41.0703 47.8279L35.8601 45.4728C32.3723 43.8591 28.2816 45.4728 26.7315 49.0054C25.1813 52.5381 26.7315 56.6813 30.2193 58.2514L35.4295 60.6065C36.3338 61.0426 37.2811 61.217 38.2284 61.217Z" fill="#0070BB"/>
<path d="M71.3413 128.599H131.323V149.446H71.3413V128.599Z" fill="#0070BB"/>
<path d="M101.311 174C91.1487 174 82.9243 165.67 82.9243 155.377H119.697C119.697 165.67 111.473 174 101.311 174Z" fill="#0070BB"/>
<path d="M17.2584 112.855C19.3252 102.693 37.238 94.4064 50.8449 89.5218C50.5865 87.3848 50.2851 85.2477 50.2851 83.0671C50.2851 69.2854 55.5815 56.2888 65.2268 46.5195C84.4745 26.9809 118.104 26.9809 137.395 46.5195C157.288 66.6686 157.288 99.4656 137.395 119.615L135.371 121.665H68.241C69.8773 120.531 71.858 119.309 74.3555 117.957C90.8042 109.06 89.7708 114.861 95.8422 112.113C100.536 110.02 103.162 106.749 100.363 100.73H100.32C100.536 101.472 100.708 102.213 100.665 102.998C100.45 106.88 97.2201 109.845 93.4309 109.627C84.6898 109.017 72.3747 114.468 61.5237 119.135C51.0602 123.627 40.9842 127.988 32.6307 127.988C28.3678 127.988 24.5354 126.854 21.349 124.02C17.9473 121.01 16.4833 116.954 17.3014 112.855H17.2584ZM106.779 83.2416C106.779 87.1231 109.88 90.2632 113.712 90.2632C117.544 90.2632 120.645 87.1231 120.645 83.2416V71.6405C120.645 67.759 117.544 64.6188 113.712 64.6188C109.88 64.6188 106.779 67.759 106.779 71.6405V83.2416ZM93.0003 60.7809L82.4076 58.3386C78.7045 57.4663 74.9583 59.8214 74.1402 63.6157C73.322 67.4101 75.6042 71.1608 79.3504 71.9894L82.0631 72.6V83.2416C82.0631 87.1231 85.1634 90.2632 88.9957 90.2632C92.828 90.2632 95.9283 87.1231 95.9283 83.2416V72.9489C97.0479 71.9894 97.9091 70.7246 98.2536 69.1546C99.1147 65.3603 96.7895 61.6096 93.0433 60.7809H93.0003ZM56.0551 106.269C55.5384 105.266 55.0647 104.176 54.5911 103.129C45.118 106.705 36.3769 110.979 32.5445 114.076C37.1089 113.771 48.8641 109.366 56.0551 106.269Z" fill="#0070BB"/>
</g>
<defs>
<clipPath id="clip0_102_3515">
<rect width="161" height="169" fill="white" transform="matrix(-1 0 0 1 178 5)"/>
</clipPath>
</defs>
</svg>
