<svg width="16" height="14" viewBox="0 0 16 14" fill="none" xmlns="http://www.w3.org/2000/svg">
<path d="M13.4432 1.51691C13.5115 1.54562 13.5607 1.60713 13.5744 1.67958L13.8464 3.15456L15.3214 3.42523C15.3938 3.4389 15.4554 3.48811 15.4841 3.55646C15.5128 3.62481 15.5046 3.70273 15.4622 3.76424L14.6106 5L15.4622 6.23439C15.5046 6.29591 15.5128 6.37383 15.4841 6.44217C15.4554 6.51052 15.3938 6.55974 15.3214 6.57341L13.8464 6.84544L13.5744 8.32042C13.5607 8.39287 13.5115 8.45438 13.4432 8.48309C13.3748 8.5118 13.2969 8.5036 13.2354 8.46122L12.001 7.60958L10.7666 8.46122C10.7051 8.5036 10.6272 8.5118 10.5588 8.48309C10.4905 8.45438 10.4412 8.39287 10.4276 8.32042L10.1555 6.84544L8.68056 6.57341C8.60811 6.55974 8.54659 6.51052 8.51789 6.44217C8.48918 6.37383 8.49738 6.29591 8.53976 6.23439L9.39139 5L8.53976 3.76561C8.49738 3.70409 8.48918 3.62618 8.51789 3.55783C8.54659 3.48948 8.60811 3.44026 8.68056 3.42659L10.1555 3.15456L10.4276 1.67958C10.4412 1.60713 10.4905 1.54562 10.5588 1.51691C10.6272 1.4882 10.7051 1.49641 10.7666 1.53878L12.001 2.39042L13.2354 1.53878C13.2969 1.49641 13.3748 1.4882 13.4432 1.51691ZM10.6887 5C10.6887 4.65195 10.8269 4.31816 11.073 4.07206C11.3191 3.82595 11.6529 3.68769 12.001 3.68769C12.349 3.68769 12.6828 3.82595 12.9289 4.07206C13.175 4.31816 13.3133 4.65195 13.3133 5C13.3133 5.34805 13.175 5.68184 12.9289 5.92794C12.6828 6.17405 12.349 6.31231 12.001 6.31231C11.6529 6.31231 11.3191 6.17405 11.073 5.92794C10.8269 5.68184 10.6887 5.34805 10.6887 5ZM13.7507 5C13.7507 4.53594 13.5664 4.09088 13.2382 3.76274C12.9101 3.4346 12.465 3.25025 12.001 3.25025C11.5369 3.25025 11.0919 3.4346 10.7637 3.76274C10.4356 4.09088 10.2512 4.53594 10.2512 5C10.2512 5.46406 10.4356 5.90912 10.7637 6.23726C11.0919 6.5654 11.5369 6.74975 12.001 6.74975C12.465 6.74975 12.9101 6.5654 13.2382 6.23726C13.5664 5.90912 13.7507 5.46406 13.7507 5Z" fill="white"/>
<path d="M7.48242 0C3.62305 0 0.498047 3.13438 0.498047 7C0.498047 10.8656 3.62305 14 7.48242 14C9.37617 14 11.0918 13.2438 12.3512 12.0188C12.5074 11.8656 12.548 11.6281 12.448 11.4344C12.348 11.2406 12.1324 11.1312 11.9168 11.1687C11.6105 11.2219 11.298 11.25 10.9762 11.25C7.94805 11.25 5.4918 8.7875 5.4918 5.75C5.4918 3.69375 6.6168 1.90313 8.28242 0.959375C8.47305 0.85 8.56992 0.63125 8.52305 0.41875C8.47617 0.20625 8.29492 0.046875 8.07617 0.028125C7.8793 0.0125 7.68242 0.00312495 7.48242 0.00312495V0Z" fill="white"/>
</svg>
