<svg width="12" height="14" viewBox="0 0 12 14" fill="none" xmlns="http://www.w3.org/2000/svg">
<path d="M6.98242 0C3.12305 0 -0.00195312 3.13438 -0.00195312 7C-0.00195312 10.8656 3.12305 14 6.98242 14C8.87617 14 10.5918 13.2438 11.8512 12.0188C12.0074 11.8656 12.048 11.6281 11.948 11.4344C11.848 11.2406 11.6324 11.1312 11.4168 11.1687C11.1105 11.2219 10.798 11.25 10.4762 11.25C7.44805 11.25 4.9918 8.7875 4.9918 5.75C4.9918 3.69375 6.1168 1.90313 7.78242 0.959375C7.97305 0.85 8.06992 0.63125 8.02305 0.41875C7.97617 0.20625 7.79492 0.046875 7.57617 0.028125C7.3793 0.0125 7.18242 0.00312495 6.98242 0.00312495V0Z" fill="white"/>
</svg>
