<svg width="159" height="172" viewBox="0 0 159 172" fill="none" xmlns="http://www.w3.org/2000/svg">
<path d="M11.239 102.139L5.83707 104.551C2.22089 106.16 0.613706 110.404 2.22089 114.022C3.42628 116.703 6.01564 118.266 8.78358 118.266C9.76575 118.266 10.7479 118.087 11.6854 117.641L17.0874 115.228C20.7035 113.62 22.3107 109.376 20.7035 105.758C19.0964 102.139 14.8552 100.486 11.239 102.139Z" fill="#E31837"/>
<path d="M4.58721 58.4929L10.1231 60.5926C10.9713 60.9053 11.8195 61.084 12.6678 61.084C15.5697 61.084 18.2483 59.3417 19.3644 56.4826C20.793 52.7747 18.918 48.6201 15.2571 47.2352L9.72128 45.1356C6.06046 43.7507 1.90856 45.5823 0.479948 49.2455C-0.948663 52.9088 0.926389 57.1081 4.58721 58.4929Z" fill="#E31837"/>
<path d="M43.8294 17.0359C45.0348 19.7164 47.6242 21.2799 50.3921 21.2799C51.3743 21.2799 52.3565 21.1012 53.294 20.6545C56.9101 19.0463 58.5173 14.8023 56.9102 11.1837L54.4994 5.77823C52.8922 2.15967 48.651 0.551428 45.0348 2.15967C41.4186 3.76792 39.8115 8.0119 41.4186 11.6305L43.8294 17.0359Z" fill="#E31837"/>
<path d="M102.536 19.359C103.385 19.6717 104.233 19.8504 105.081 19.8504C107.983 19.8504 110.662 18.1081 111.778 15.249L113.876 9.70949C115.305 6.00159 113.43 1.84696 109.769 0.462078C106.108 -0.922801 101.911 0.908813 100.527 4.57204L98.4292 10.1116C97.0006 13.8195 98.8756 17.9741 102.536 19.359Z" fill="#E31837"/>
<path d="M144.903 57.5101C145.886 57.5101 146.868 57.3314 147.805 56.8847L153.207 54.4723C156.823 52.8641 158.431 48.6201 156.823 45.0016C155.216 41.383 151.02 39.7301 147.359 41.383L141.957 43.7954C138.341 45.4036 136.734 49.6476 138.341 53.2662C139.502 55.9466 142.136 57.5101 144.903 57.5101Z" fill="#E31837"/>
<path d="M154.413 100.575L148.877 98.4757C145.216 97.0462 141.02 98.9225 139.636 102.586C138.207 106.294 140.082 110.448 143.743 111.833L149.279 113.933C150.127 114.245 150.975 114.424 151.824 114.424C154.725 114.424 157.404 112.682 158.52 109.823C159.949 106.115 158.074 101.96 154.413 100.575Z" fill="#E31837"/>
<path d="M39.3608 40.2293C18.7352 60.8685 18.7352 94.4629 39.3608 115.102L41.4591 117.202H112.086L114.184 115.102C124.185 105.095 129.676 91.8272 129.676 77.6657C129.676 63.5042 124.185 50.2362 114.184 40.2293C94.1837 20.2156 59.3613 20.2156 39.3608 40.2293ZM71.1027 86.243C71.1027 90.219 67.8884 93.4355 63.915 93.4355C59.9417 93.4355 56.7273 90.219 56.7273 86.243V66.0953C56.7273 62.1193 59.9417 58.9028 63.915 58.9028C67.8884 58.9028 71.1027 62.1193 71.1027 66.0953V86.243ZM96.7731 86.243C96.7731 90.219 93.5587 93.4355 89.5854 93.4355C85.6121 93.4355 82.3977 90.219 82.3977 86.243V66.0953C82.3977 62.1193 85.6121 58.9028 89.5854 58.9028C93.5587 58.9028 96.7731 62.1193 96.7731 66.0953V86.243Z" fill="#E31837"/>
<path d="M108.474 124.744H46.2847V146.098H108.474V124.744Z" fill="#E31837"/>
<path d="M77.4017 171.294C87.9377 171.294 96.4647 162.761 96.4647 152.218H58.3386C58.3386 162.761 66.8656 171.294 77.4017 171.294Z" fill="#E31837"/>
<path d="M62.063 72.0756C72.599 72.0756 81.1261 63.5429 81.1261 53H43C43 63.5429 51.527 72.0756 62.063 72.0756Z" fill="#E31837"/>
<path d="M89.063 72.0756C99.599 72.0756 108.126 63.5429 108.126 53H70C70 63.5429 78.527 72.0756 89.063 72.0756Z" fill="#E31837"/>
</svg>
