<svg width="12" height="14" viewBox="0 0 12 14" fill="none" xmlns="http://www.w3.org/2000/svg">
<path d="M6.98175 0C3.12383 0 0 3.13438 0 7C0 10.8656 3.12383 14 6.98175 14C8.87479 14 10.5898 13.2438 11.8487 12.0188C12.0049 11.8656 12.0455 11.6281 11.9455 11.4344C11.8455 11.2406 11.63 11.1312 11.4145 11.1687C11.1083 11.2219 10.7959 11.25 10.4742 11.25C7.4472 11.25 4.99187 8.7875 4.99187 5.75C4.99187 3.69375 6.11645 1.90313 7.78145 0.959375C7.972 0.85 8.06884 0.63125 8.02198 0.41875C7.97512 0.20625 7.79394 0.046875 7.57528 0.028125C7.37847 0.0125 7.18167 0.00312495 6.98175 0.00312495V0Z" fill="black"/>
</svg>
