<svg width="35" height="36" viewBox="0 0 35 36" fill="none" xmlns="http://www.w3.org/2000/svg">
<rect x="0.857422" y="22.2822" width="9.16447" height="13.1178" rx="2" fill="white"/>
<rect x="25.835" y="26.7746" width="9.16447" height="8.62538" rx="2" fill="white"/>
<rect x="12.1787" y="17.7899" width="11.3208" height="17.4305" rx="2" fill="white"/>
<path d="M16.6345 1.33768C17.027 0.716636 17.9327 0.716637 18.3252 1.33768L20.152 4.22837C20.2886 4.4445 20.5027 4.6001 20.7505 4.66321L24.0642 5.5073C24.7761 5.68865 25.056 6.55007 24.5867 7.11525L22.402 9.74588C22.2386 9.94256 22.1568 10.1943 22.1733 10.4495L22.3946 13.8618C22.4421 14.595 21.7093 15.1273 21.0268 14.8556L17.8498 13.5907C17.6122 13.4962 17.3475 13.4962 17.11 13.5907L13.933 14.8556C13.2504 15.1273 12.5177 14.595 12.5652 13.8618L12.7864 10.4495C12.8029 10.1943 12.7211 9.94256 12.5578 9.74588L10.3731 7.11525C9.90371 6.55007 10.1836 5.68865 10.8955 5.5073L14.2092 4.66321C14.457 4.6001 14.6712 4.4445 14.8077 4.22837L16.6345 1.33768Z" fill="white"/>
</svg>
