<svg width="26" height="26" viewBox="0 0 26 26" fill="none" xmlns="http://www.w3.org/2000/svg">
<rect x="0.5" y="1" width="25" height="25" rx="3" fill="black"/>
<path d="M0.5 13H25.5" stroke="white" stroke-width="2"/>
<path d="M13.5 1L13.5 26" stroke="white" stroke-width="2"/>
<path d="M5.03 10.135C4.9 10.135 4.735 10.09 4.535 10C4.345 9.9 4.175 9.775 4.025 9.625C3.875 9.475 3.8 9.325 3.8 9.175C3.8 9.065 3.84 8.955 3.92 8.845L5.69 6.37L4.04 4.075C4.02 4.045 3.995 4 3.965 3.94C3.935 3.88 3.92 3.82 3.92 3.76C3.92 3.61 3.99 3.46 4.13 3.31C4.28 3.16 4.455 3.035 4.655 2.935C4.855 2.835 5.04 2.785 5.21 2.785C5.26 2.785 5.33 2.8 5.42 2.83C5.51 2.85 5.585 2.905 5.645 2.995L7.01 5.185L8.39 3.01C8.44 2.92 8.51 2.86 8.6 2.83C8.69 2.8 8.775 2.785 8.855 2.785C9.005 2.785 9.18 2.835 9.38 2.935C9.58 3.035 9.75 3.16 9.89 3.31C10.04 3.45 10.115 3.6 10.115 3.76C10.115 3.85 10.075 3.955 9.995 4.075L8.33 6.385L10.115 8.845C10.145 8.875 10.17 8.92 10.19 8.98C10.22 9.04 10.235 9.105 10.235 9.175C10.235 9.315 10.165 9.46 10.025 9.61C9.885 9.75 9.72 9.875 9.53 9.985C9.34 10.085 9.155 10.135 8.975 10.135C8.895 10.135 8.81 10.12 8.72 10.09C8.64 10.06 8.575 10.005 8.525 9.925L7.01 7.645L5.51 9.925C5.46 9.995 5.385 10.045 5.285 10.075C5.195 10.115 5.11 10.135 5.03 10.135Z" fill="white"/>
<path d="M18.03 24.135C17.9 24.135 17.735 24.09 17.535 24C17.345 23.9 17.175 23.775 17.025 23.625C16.875 23.475 16.8 23.325 16.8 23.175C16.8 23.065 16.84 22.955 16.92 22.845L18.69 20.37L17.04 18.075C17.02 18.045 16.995 18 16.965 17.94C16.935 17.88 16.92 17.82 16.92 17.76C16.92 17.61 16.99 17.46 17.13 17.31C17.28 17.16 17.455 17.035 17.655 16.935C17.855 16.835 18.04 16.785 18.21 16.785C18.26 16.785 18.33 16.8 18.42 16.83C18.51 16.85 18.585 16.905 18.645 16.995L20.01 19.185L21.39 17.01C21.44 16.92 21.51 16.86 21.6 16.83C21.69 16.8 21.775 16.785 21.855 16.785C22.005 16.785 22.18 16.835 22.38 16.935C22.58 17.035 22.75 17.16 22.89 17.31C23.04 17.45 23.115 17.6 23.115 17.76C23.115 17.85 23.075 17.955 22.995 18.075L21.33 20.385L23.115 22.845C23.145 22.875 23.17 22.92 23.19 22.98C23.22 23.04 23.235 23.105 23.235 23.175C23.235 23.315 23.165 23.46 23.025 23.61C22.885 23.75 22.72 23.875 22.53 23.985C22.34 24.085 22.155 24.135 21.975 24.135C21.895 24.135 21.81 24.12 21.72 24.09C21.64 24.06 21.575 24.005 21.525 23.925L20.01 21.645L18.51 23.925C18.46 23.995 18.385 24.045 18.285 24.075C18.195 24.115 18.11 24.135 18.03 24.135Z" fill="white"/>
<path d="M20.22 10.135C19.64 10.135 19.105 9.995 18.615 9.715C18.125 9.425 17.73 9.045 17.43 8.575C17.13 8.105 16.98 7.6 16.98 7.06V5.83C16.98 5.29 17.125 4.79 17.415 4.33C17.705 3.86 18.095 3.485 18.585 3.205C19.085 2.925 19.63 2.785 20.22 2.785C20.81 2.785 21.35 2.925 21.84 3.205C22.34 3.475 22.735 3.84 23.025 4.3C23.325 4.76 23.475 5.27 23.475 5.83V7.06C23.475 7.59 23.325 8.09 23.025 8.56C22.725 9.03 22.325 9.41 21.825 9.7C21.335 9.99 20.8 10.135 20.22 10.135ZM20.22 8.44C20.46 8.44 20.68 8.375 20.88 8.245C21.08 8.115 21.24 7.945 21.36 7.735C21.48 7.515 21.54 7.29 21.54 7.06V5.83C21.54 5.6 21.48 5.385 21.36 5.185C21.24 4.985 21.08 4.82 20.88 4.69C20.69 4.55 20.47 4.48 20.22 4.48C19.98 4.48 19.76 4.545 19.56 4.675C19.36 4.805 19.2 4.975 19.08 5.185C18.97 5.385 18.915 5.6 18.915 5.83V7.06C18.915 7.29 18.97 7.515 19.08 7.735C19.2 7.945 19.36 8.115 19.56 8.245C19.76 8.375 19.98 8.44 20.22 8.44Z" fill="white"/>
<path d="M7.22 24.135C6.64 24.135 6.105 23.995 5.615 23.715C5.125 23.425 4.73 23.045 4.43 22.575C4.13 22.105 3.98 21.6 3.98 21.06V19.83C3.98 19.29 4.125 18.79 4.415 18.33C4.705 17.86 5.095 17.485 5.585 17.205C6.085 16.925 6.63 16.785 7.22 16.785C7.81 16.785 8.35 16.925 8.84 17.205C9.34 17.475 9.735 17.84 10.025 18.3C10.325 18.76 10.475 19.27 10.475 19.83V21.06C10.475 21.59 10.325 22.09 10.025 22.56C9.725 23.03 9.325 23.41 8.825 23.7C8.335 23.99 7.8 24.135 7.22 24.135ZM7.22 22.44C7.46 22.44 7.68 22.375 7.88 22.245C8.08 22.115 8.24 21.945 8.36 21.735C8.48 21.515 8.54 21.29 8.54 21.06V19.83C8.54 19.6 8.48 19.385 8.36 19.185C8.24 18.985 8.08 18.82 7.88 18.69C7.69 18.55 7.47 18.48 7.22 18.48C6.98 18.48 6.76 18.545 6.56 18.675C6.36 18.805 6.2 18.975 6.08 19.185C5.97 19.385 5.915 19.6 5.915 19.83V21.06C5.915 21.29 5.97 21.515 6.08 21.735C6.2 21.945 6.36 22.115 6.56 22.245C6.76 22.375 6.98 22.44 7.22 22.44Z" fill="white"/>
</svg>
