<svg width="17" height="16" viewBox="0 0 17 16" fill="none" xmlns="http://www.w3.org/2000/svg">
<path d="M9.60312 11.4724C10.4562 11.3505 11.225 10.8661 11.7031 10.1318L16.7563 2.31613C17.15 1.70675 17.05 0.900503 16.5187 0.403628C15.9875 -0.0932474 15.1781 -0.136997 14.5969 0.300503L7.2 5.8505C6.45 6.413 6.00625 7.29113 6 8.22863L9.60312 11.4724ZM8.99063 12.2661L5.36562 9.00363C3.49687 9.07238 2 10.613 2 12.5005C2 12.6224 2.00625 12.7443 2.01875 12.863C2.075 13.4099 1.7 14.0005 1.15 14.0005H1C0.446875 14.0005 0 14.4474 0 15.0005C0 15.5536 0.446875 16.0005 1 16.0005H5.5C7.43438 16.0005 9 14.4349 9 12.5005C9 12.4224 8.99687 12.3443 8.99375 12.2661H8.99063Z" fill="#0070BB"/>
</svg>
