<svg width="16" height="16" viewBox="0 0 16 16" fill="none" xmlns="http://www.w3.org/2000/svg">
<path d="M7.99999 0.0437622C7.85624 0.0437622 7.71249 0.0750122 7.58124 0.134387L1.69686 2.63126C1.00936 2.92189 0.496861 3.60001 0.499986 4.41876C0.515611 7.51876 1.79061 13.1906 7.17499 15.7688C7.69686 16.0188 8.30311 16.0188 8.82499 15.7688C14.2094 13.1906 15.4844 7.51876 15.5 4.41876C15.5031 3.60001 14.9906 2.92189 14.3031 2.63126L8.41561 0.134387C8.28749 0.0750122 8.14374 0.0437622 7.99999 0.0437622ZM7.99999 2.13126V13.9469C3.68749 11.8563 2.52811 7.23439 2.49999 4.46251L7.99999 2.13126Z" fill="#353535"/>
</svg>
