<svg width="16" height="16" viewBox="0 0 16 16" fill="none" xmlns="http://www.w3.org/2000/svg">
<path d="M7.99999 0.0437469C7.85624 0.0437469 7.71249 0.074997 7.58124 0.134372L1.69686 2.63125C1.00936 2.92187 0.496861 3.6 0.499986 4.41875C0.515611 7.51875 1.79061 13.1906 7.17499 15.7687C7.69686 16.0187 8.30311 16.0187 8.82499 15.7687C14.2094 13.1906 15.4844 7.51875 15.5 4.41875C15.5031 3.6 14.9906 2.92187 14.3031 2.63125L8.41561 0.134372C8.28749 0.074997 8.14374 0.0437469 7.99999 0.0437469ZM7.99999 2.13125V13.9469C3.68749 11.8562 2.52811 7.23437 2.49999 4.4625L7.99999 2.13125Z" fill="white"/>
</svg>
