<svg width="271" height="259" viewBox="0 0 271 259" fill="none" xmlns="http://www.w3.org/2000/svg">
<path d="M106.535 188.586H200.679V220.868H106.535V188.586Z" fill="#0070BB"/>
<path d="M153.573 258.959C137.623 258.959 124.714 246.059 124.714 230.121H182.431C182.431 246.059 169.522 258.959 153.573 258.959Z" fill="#0070BB"/>
<path d="M253.732 154.48L261.909 158.127C267.384 160.558 269.817 166.974 267.384 172.444C265.559 176.496 261.639 178.86 257.449 178.86C255.962 178.86 254.475 178.59 253.056 177.915L244.878 174.268C239.404 171.836 236.971 165.42 239.404 159.95C241.837 154.48 248.257 151.981 253.732 154.48Z" fill="#0070BB"/>
<path d="M263.801 88.4287L255.421 91.6029C254.137 92.0757 252.853 92.3458 251.569 92.3458C247.176 92.3458 243.121 89.7119 241.431 85.3895C239.269 79.784 242.107 73.5031 247.649 71.4094L256.029 68.2352C261.571 66.1416 267.924 68.9106 270.019 74.4486C272.182 80.0541 269.343 86.3351 263.801 88.4287Z" fill="#0070BB"/>
<path d="M204.396 25.7547C202.571 29.8069 198.651 32.1707 194.461 32.1707C192.974 32.1707 191.487 31.9005 190.068 31.2251C184.594 28.7938 182.161 22.3778 184.594 16.9074L188.243 8.73543C190.676 3.26496 197.097 0.766105 202.571 3.26496C208.045 5.69628 210.478 12.1123 208.045 17.5827L204.396 25.7547Z" fill="#0070BB"/>
<path d="M115.456 29.2666C114.172 29.7393 112.887 30.0095 111.603 30.0095C107.21 30.0095 103.155 27.3755 101.466 23.0532L98.2895 14.6787C96.1268 9.07311 98.9653 2.7922 104.507 0.698561C110.049 -1.39508 116.334 1.37393 118.497 6.91193L121.673 15.2865C123.836 20.892 120.998 27.1729 115.456 29.2666Z" fill="#0070BB"/>
<path d="M51.3868 86.9429C49.9 86.9429 48.4131 86.6727 46.9938 85.9974L38.8163 82.3504C33.342 79.9191 30.909 73.5031 33.2744 68.0326C35.7074 62.5621 42.1278 60.1308 47.6021 62.4946L55.7797 66.1416C61.254 68.5729 63.687 74.9889 61.3216 80.4594C59.4968 84.5116 55.577 86.8753 51.3868 86.8753V86.9429Z" fill="#0070BB"/>
<path d="M15.7702 132.26C19.69 127.127 27.2594 126.722 31.7199 131.314C32.3957 131.99 33.2067 132.733 33.8825 133.408L35.6397 118.888C36.3831 112.944 41.6546 108.69 47.7372 109.433C53.6845 110.175 57.9422 115.578 57.1988 121.522L53.8197 149.414C53.8197 149.955 53.4818 150.427 53.3466 150.968C58.8208 154.547 64.8358 157.113 69.9721 155.695C74.0271 154.615 77.136 151.17 79.2986 147.928C75.514 138.541 73.4865 128.478 73.4865 118.145C73.4865 96.8032 81.7992 76.6773 96.9379 61.5491C127.215 31.2927 179.93 31.2927 210.208 61.5491C241.431 92.751 241.431 143.539 210.208 174.741L207.031 177.915H100.114L96.9379 174.741C94.7077 172.512 92.9505 170.013 91.0582 167.582C87.0707 171.431 82.2047 174.876 75.8519 176.632C72.9458 177.442 69.9045 177.847 66.8633 177.847C59.5643 177.847 51.9273 175.281 44.0876 170.688C41.587 172.782 38.1403 173.727 34.6935 172.985L8.13321 166.704C0.699036 164.948 -2.4774 156.1 2.18585 150.022L15.7702 132.327V132.26ZM149.518 132.26C149.518 138.271 154.384 143.133 160.399 143.133C166.414 143.133 171.28 138.271 171.28 132.26V101.801C171.28 95.7902 166.414 90.9275 160.399 90.9275C154.384 90.9275 149.518 95.7902 149.518 101.801V132.26ZM110.657 132.26C110.657 138.271 115.523 143.133 121.538 143.133C127.553 143.133 132.419 138.271 132.419 132.26V101.801C132.419 95.7902 127.553 90.9275 121.538 90.9275C115.523 90.9275 110.657 95.7902 110.657 101.801V132.26Z" fill="#0070BB"/>
</svg>
